<?xml version="1.0" standalone="no"?>
<!DOCTYPE svg PUBLIC "-//W3C//DTD SVG 20010904//EN"
 "http://www.w3.org/TR/2001/REC-SVG-20010904/DTD/svg10.dtd">
<svg version="1.0" xmlns="http://www.w3.org/2000/svg"
 width="1024.000000pt" height="1024.000000pt" viewBox="0 0 1024.000000 1024.000000"
 preserveAspectRatio="xMidYMid meet">
<metadata>
Created by potrace 1.14, written by Peter Selinger 2001-2017
</metadata>
<g transform="translate(0.000000,1024.000000) scale(0.100000,-0.100000)"
fill="#000000" stroke="none">
<path d="M0 5120 l0 -5120 5120 0 5120 0 0 5120 0 5120 -5120 0 -5120 0 0
-5120z m5335 3510 c733 -50 1398 -306 1972 -762 150 -118 425 -391 537 -531
374 -469 614 -989 725 -1567 58 -303 73 -739 37 -1040 -70 -589 -283 -1152
-609 -1615 -169 -239 -404 -496 -622 -680 -524 -442 -1147 -712 -1850 -801
-196 -25 -624 -25 -820 0 -330 42 -631 120 -914 236 -1021 420 -1788 1291
-2070 2352 -129 486 -150 1027 -60 1532 311 1741 1912 2994 3674 2876z"/>
<path d="M4930 8490 c-158 -9 -284 -24 -430 -52 -214 -40 -500 -121 -500 -141
0 -7 7 -37 15 -67 55 -204 79 -503 56 -721 -59 -557 -309 -1097 -757 -1634
-120 -143 -299 -326 -561 -573 -482 -455 -718 -824 -773 -1207 -23 -167 -12
-211 124 -484 137 -273 311 -527 511 -747 l77 -85 92 84 c390 355 777 585
1251 742 366 122 698 175 1088 175 867 0 1695 -328 2333 -924 l82 -76 67 71
c224 238 449 581 590 901 63 144 65 150 65 232 0 277 -135 585 -399 913 -108
134 -300 333 -519 536 -660 613 -1066 1295 -1166 1957 -44 291 -31 524 51 897
5 20 -4 24 -93 53 -380 118 -809 172 -1204 150z m225 -1192 c13 -63 75 -177
123 -226 61 -63 118 -98 212 -132 62 -23 75 -32 75 -50 0 -18 -13 -27 -75 -50
-96 -34 -151 -69 -212 -134 -49 -51 -110 -161 -123 -224 -7 -34 -33 -56 -53
-43 -6 4 -20 32 -31 62 -61 178 -159 279 -328 339 -66 23 -78 31 -78 50 0 19
12 27 78 50 169 60 267 161 328 339 11 30 25 58 31 62 20 13 46 -9 53 -43z
m-1047 -1430 c22 -50 44 -72 95 -93 20 -8 37 -19 37 -24 0 -4 -18 -16 -39 -26
-49 -22 -75 -49 -96 -98 -19 -46 -30 -47 -44 -4 -14 41 -66 93 -109 108 -17 6
-32 15 -32 19 0 4 15 13 32 19 43 15 95 67 109 108 6 18 14 33 19 33 5 0 18
-19 28 -42z m2070 0 c22 -50 44 -72 95 -93 20 -8 37 -19 37 -24 0 -4 -18 -16
-39 -26 -49 -22 -75 -49 -96 -98 -19 -46 -30 -47 -44 -4 -14 41 -66 93 -109
108 -17 6 -32 15 -32 19 0 4 15 13 32 19 43 15 95 67 109 108 6 18 14 33 19
33 5 0 18 -19 28 -42z m-1017 -312 c46 -114 121 -189 221 -221 68 -22 86 -38
68 -59 -7 -9 -20 -16 -30 -16 -34 0 -139 -62 -180 -106 -37 -40 -56 -75 -98
-176 -12 -29 -39 -38 -47 -15 -59 168 -130 246 -269 293 -25 9 -49 20 -52 25
-8 14 15 39 36 39 38 0 140 63 189 116 44 48 60 78 96 182 11 31 39 4 66 -62z
m-1843 -979 c33 -72 103 -141 164 -159 61 -18 68 -35 22 -53 -104 -41 -169
-104 -193 -187 -16 -53 -38 -47 -62 17 -25 67 -80 122 -156 157 -35 15 -63 32
-63 36 0 5 26 19 57 32 79 33 126 78 159 155 16 36 32 65 36 65 4 0 21 -28 36
-63z m3665 4 c26 -70 88 -132 158 -159 71 -26 73 -42 7 -66 -67 -23 -147 -102
-168 -166 -21 -63 -41 -62 -63 1 -25 70 -96 141 -166 164 -66 21 -64 40 6 67
79 29 128 82 167 181 9 21 21 37 27 35 6 -2 21 -28 32 -57z m-2498 -68 c21
-50 60 -90 102 -104 41 -13 43 -35 2 -44 -39 -9 -98 -68 -106 -106 -7 -39 -29
-37 -42 4 -14 42 -54 81 -103 102 -21 8 -38 19 -38 23 1 4 24 18 53 32 44 21
56 33 77 77 14 29 28 52 32 53 4 0 15 -17 23 -37z m1315 -15 c21 -44 34 -56
77 -78 28 -14 52 -28 52 -32 1 -4 -16 -15 -36 -23 -51 -21 -73 -43 -95 -92
-10 -24 -23 -43 -28 -43 -5 0 -18 20 -28 43 -20 44 -57 78 -106 97 -35 13 -33
26 6 39 43 15 95 67 109 108 6 18 14 33 17 33 4 0 18 -24 32 -52z"/>
<path d="M2939 7698 c-177 -147 -378 -363 -534 -572 -417 -561 -655 -1267
-655 -1944 l0 -155 41 59 c70 99 155 209 359 464 335 417 460 594 602 848 280
500 381 949 286 1270 -11 40 -25 75 -29 78 -4 2 -36 -19 -70 -48z"/>
<path d="M7207 7698 c-34 -109 -40 -157 -40 -293 0 -112 5 -165 26 -265 63
-303 222 -661 444 -1000 104 -158 174 -251 432 -573 122 -153 266 -337 319
-409 l97 -132 3 50 c6 80 -17 399 -37 539 -104 702 -424 1349 -919 1857 -111
113 -279 268 -301 276 -5 1 -15 -21 -24 -50z"/>
<path d="M4875 3513 c-722 -60 -1385 -352 -1905 -837 -36 -33 -49 -49 -30 -35
619 455 1339 609 2076 444 349 -79 723 -261 1009 -492 160 -129 421 -410 485
-522 8 -14 23 -9 122 41 150 76 309 172 443 269 122 88 257 198 262 215 9 29
-342 315 -539 440 -141 89 -456 243 -613 299 -241 87 -537 151 -795 175 -105
9 -420 11 -515 3z"/>
</g>
</svg>
